<svg id="Layer_1" data-name="Layer 1" xmlns="http://www.w3.org/2000/svg" viewBox="0 0 199.31 177.7"><defs><style>.cls-1,.cls-11{fill:#ef476f;}.cls-1,.cls-2,.cls-3{stroke:#231f20;stroke-miterlimit:10;opacity:0.7;}.cls-13,.cls-2{fill:#ffd168;}.cls-3{fill:#1a8ab2;}.cls-4{font-size:8.35px;font-family:Helvetica-Bold, Helvetica;font-weight:700;}.cls-12,.cls-4,.cls-6{fill:#231f20;}.cls-5{letter-spacing:-0.02em;}.cls-6{font-size:3.41px;}.cls-11,.cls-12,.cls-13,.cls-6{font-family:Helvetica;}.cls-7{letter-spacing:-0.04em;}.cls-8{letter-spacing:-0.05em;}.cls-9{letter-spacing:-0.02em;}.cls-10{letter-spacing:-0.02em;}.cls-11,.cls-12,.cls-13{font-size:3.04px;}</style></defs><circle class="cls-1" cx="126.69" cy="61.96" r="37.94"/><circle class="cls-2" cx="75" cy="111.6" r="37.94"/><circle class="cls-3" cx="75.28" cy="61.96" r="37.94"/><text class="cls-4" transform="translate(64.06 61.96)">DCM</text><text class="cls-4" transform="translate(117.76 61.96)">HCM</text><text class="cls-4" transform="translate(63.25 111.77)">A<tspan class="cls-5" x="6.03" y="0">R</tspan><tspan x="11.91" y="0">VC</tspan></text><text class="cls-6" transform="translate(144.31 48.02)">CSRP3</text><text class="cls-6" transform="translate(43.76 79.79)">VC<tspan class="cls-7" x="4.74" y="0">L</tspan></text><text class="cls-6" transform="translate(42.18 73.05)">SCN5<tspan class="cls-8" x="9.11" y="0">A</tspan></text><text class="cls-6" transform="translate(40.08 66.97)">RBM20</text><text class="cls-6" transform="translate(39 59.98)">NEXN</text><text class="cls-6" transform="translate(150.93 77.28)">MYL3</text><text class="cls-6" transform="translate(154 67.48)">MYL2</text><text class="cls-6" transform="translate(149.06 56.78)">MYBPC3</text><text class="cls-6" transform="translate(40.96 52.21)">LMN<tspan class="cls-8" x="7.21" y="0">A</tspan></text><text class="cls-6" transform="translate(43.85 45.46)">FLNC</text><text class="cls-6" transform="translate(48.68 38.97)">BAG3</text><text class="cls-6" transform="translate(53.97 33.11)">ACTN2</text><text class="cls-6" transform="translate(95.65 78.52)">TPM1</text><text class="cls-6" transform="translate(99.69 73.12)">TNNT2</text><text class="cls-6" transform="translate(90.37 68.38)">TNNI3</text><text class="cls-6" transform="translate(98.93 62.69)">TNNC1</text><text class="cls-6" transform="translate(90.42 58.29)">MYH7</text><text class="cls-6" transform="translate(95.7 53)">JPH2</text><text class="cls-6" transform="translate(93.44 46.29)">ACTC1</text><text class="cls-6" transform="translate(88.75 135.42)">TMEM43</text><text class="cls-6" transform="translate(71.55 83.52)">PLN</text><text class="cls-6" transform="translate(84.96 142.48)">PKP2</text><text class="cls-6" transform="translate(72.73 147.36)">JU<tspan class="cls-9" x="4.17" y="0">P</tspan></text><text class="cls-6" transform="translate(80.25 90.98)">DS<tspan class="cls-10" x="4.74" y="0">P</tspan></text><text class="cls-6" transform="translate(57.65 142.48)">DSG2</text><text class="cls-6" transform="translate(48.68 135.49)">DSC2</text><text class="cls-6" transform="translate(62.69 90.98)">DES</text><text class="cls-11" transform="translate(109.98 61.23)">M</text><text class="cls-11" transform="translate(107.14 51.43)">M</text><text class="cls-12" transform="translate(104.46 76.65)">M</text><text class="cls-12" transform="translate(100.35 66.57)">M</text><text class="cls-12" transform="translate(104.24 51.43)">M</text><text class="cls-12" transform="translate(104.53 44.76)">M</text><text class="cls-12" transform="translate(155.82 46.49)">M</text><text class="cls-12" transform="translate(50.33 77.85)">M</text><text class="cls-12" transform="translate(48.69 58.29)">M</text><text class="cls-12" transform="translate(65.3 31.25)">M</text><text class="cls-12" transform="translate(87.36 89.23)">S</text><text class="cls-13" transform="translate(78.11 81.55)">M</text><text class="cls-13" transform="translate(69.79 89.23)">M</text></svg>