<svg id="Layer_1" data-name="Layer 1" xmlns="http://www.w3.org/2000/svg" viewBox="0 0 170.83 163.22"><defs><style>.cls-1,.cls-10{fill:#ef476f;}.cls-1,.cls-2,.cls-3{stroke:#231f20;stroke-miterlimit:10;opacity:0.7;}.cls-12,.cls-2{fill:#ffd168;}.cls-3{fill:#1a8ab2;}.cls-4{font-size:8.35px;font-family:Helvetica-Bold, Helvetica;font-weight:700;}.cls-11,.cls-4,.cls-5{fill:#231f20;}.cls-5{font-size:3.41px;}.cls-10,.cls-11,.cls-12,.cls-5{font-family:Helvetica;}.cls-6{letter-spacing:-0.04em;}.cls-7{letter-spacing:-0.05em;}.cls-8{letter-spacing:-0.02em;}.cls-9{letter-spacing:-0.02em;}.cls-10,.cls-11,.cls-12{font-size:3.04px;}</style></defs><circle class="cls-1" cx="114.3" cy="58.58" r="37.94"/><circle class="cls-2" cx="62.89" cy="108.22" r="37.94"/><circle class="cls-3" cx="62.89" cy="58.58" r="37.94"/><text class="cls-4" transform="translate(51.67 58.58)">DCM</text><text class="cls-4" transform="translate(105.38 58.58)">HCM</text><text class="cls-4" transform="translate(53.61 108.22)">ACM</text><text class="cls-5" transform="translate(131.92 44.64)">CSRP3</text><text class="cls-5" transform="translate(31.37 76.41)">VC<tspan class="cls-6" x="4.74" y="0">L</tspan></text><text class="cls-5" transform="translate(29.79 69.67)">SCN5<tspan class="cls-7" x="9.11" y="0">A</tspan></text><text class="cls-5" transform="translate(27.69 63.59)">RBM20</text><text class="cls-5" transform="translate(26.62 56.6)">NEXN</text><text class="cls-5" transform="translate(138.55 73.9)">MYL3</text><text class="cls-5" transform="translate(141.61 64.1)">MYL2</text><text class="cls-5" transform="translate(136.68 53.4)">MYBPC3</text><text class="cls-5" transform="translate(28.57 48.83)">LMN<tspan class="cls-7" x="7.21" y="0">A</tspan></text><text class="cls-5" transform="translate(31.46 42.08)">FLNC</text><text class="cls-5" transform="translate(36.3 35.59)">BAG3</text><text class="cls-5" transform="translate(41.58 29.73)">ACTN2</text><text class="cls-5" transform="translate(83.26 75.14)">TPM1</text><text class="cls-5" transform="translate(87.3 69.74)">TNNT2</text><text class="cls-5" transform="translate(77.98 65)">TNNI3</text><text class="cls-5" transform="translate(86.55 59.31)">TNNC1</text><text class="cls-5" transform="translate(78.03 54.91)">MYH7</text><text class="cls-5" transform="translate(83.31 49.62)">JPH2</text><text class="cls-5" transform="translate(81.05 42.91)">ACTC1</text><text class="cls-5" transform="translate(76.36 132.04)">TMEM43</text><text class="cls-5" transform="translate(59.16 80.14)">PLN</text><text class="cls-5" transform="translate(72.57 139.1)">PKP2</text><text class="cls-5" transform="translate(60.35 143.98)">JU<tspan class="cls-8" x="4.17" y="0">P</tspan></text><text class="cls-5" transform="translate(67.86 87.6)">DS<tspan class="cls-9" x="4.74" y="0">P</tspan></text><text class="cls-5" transform="translate(45.26 139.1)">DSG2</text><text class="cls-5" transform="translate(36.3 132.11)">DSC2</text><text class="cls-5" transform="translate(50.3 87.6)">DES</text><text class="cls-10" transform="translate(97.6 57.85)">M</text><text class="cls-10" transform="translate(94.75 48.05)">M</text><text class="cls-11" transform="translate(92.07 73.27)">M</text><text class="cls-11" transform="translate(87.96 63.19)">M</text><text class="cls-11" transform="translate(91.85 48.05)">M</text><text class="cls-11" transform="translate(92.14 41.39)">M</text><text class="cls-11" transform="translate(143.43 43.11)">M</text><text class="cls-11" transform="translate(37.94 74.47)">M</text><text class="cls-11" transform="translate(36.31 54.91)">M</text><text class="cls-11" transform="translate(52.91 27.87)">M</text><text class="cls-11" transform="translate(74.97 85.85)">S</text><text class="cls-12" transform="translate(65.72 78.17)">M</text><text class="cls-12" transform="translate(57.4 85.85)">M</text></svg>