<?xml version="1.0" encoding="UTF-8"?><svg id="a" xmlns="http://www.w3.org/2000/svg" viewBox="0 0 128.56 126.52"><defs><style>.b{letter-spacing:-.04em;}.c{letter-spacing:-.02em;}.d{fill:#1a8ab2;}.d,.e,.f{opacity:.7;stroke:#231f20;stroke-miterlimit:10;}.e,.g{fill:#ffd168;}.f,.h{fill:#ef476f;}.i{letter-spacing:-.02em;}.j{font-size:3.41px;}.j,.h,.g,.k{font-family:Helvetica, Helvetica;}.j,.k,.l{fill:#231f20;}.m{letter-spacing:-.05em;}.h,.g,.k{font-size:3.04px;}.l{font-family:Helvetica-Bold, Helvetica;font-size:8.35px;}.n{letter-spacing:-.02em;}</style></defs><circle class="f" cx="90.13" cy="38.44" r="37.94"/><circle class="e" cx="38.44" cy="88.08" r="37.94"/><circle class="d" cx="38.72" cy="38.44" r="37.94"/><text class="l" transform="translate(27.5 38.44)"><tspan x="0" y="0">DCM</tspan></text><text class="l" transform="translate(81.2 38.44)"><tspan x="0" y="0">HCM</tspan></text><text class="l" transform="translate(26.69 88.25)"><tspan x="0" y="0">A</tspan><tspan class="i" x="6.03" y="0">R</tspan><tspan x="11.91" y="0">VC</tspan></text><text class="j" transform="translate(107.75 24.5)"><tspan x="0" y="0">CSRP3</tspan></text><text class="j" transform="translate(7.29 55.3)"><tspan x="0" y="0">VC</tspan><tspan class="b" x="4.74" y="0">L</tspan></text><text class="j" transform="translate(3.22 44.6)"><tspan x="0" y="0">SCN5</tspan><tspan class="m" x="9.11" y="0">A</tspan></text><text class="j" transform="translate(2.71 38.6)"><tspan x="0" y="0">RBM20</tspan></text><text class="j" transform="translate(2.96 31.83)"><tspan x="0" y="0">NEXN</tspan></text><text class="j" transform="translate(114.37 53.76)"><tspan x="0" y="0">MYL3</tspan></text><text class="j" transform="translate(117.44 43.96)"><tspan x="0" y="0">MYL2</tspan></text><text class="j" transform="translate(112.5 33.26)"><tspan x="0" y="0">MYBPC3</tspan></text><text class="j" transform="translate(5.63 25.11)"><tspan x="0" y="0">LMN</tspan><tspan class="m" x="7.21" y="0">A</tspan></text><text class="j" transform="translate(9.67 19.75)"><tspan x="0" y="0">FLNC</tspan></text><text class="j" transform="translate(13.76 14.55)"><tspan x="0" y="0">BAG3</tspan></text><text class="j" transform="translate(17.41 9.59)"><tspan x="0" y="0">ACTN2</tspan></text><text class="j" transform="translate(59.09 55)"><tspan x="0" y="0">TPM1</tspan></text><text class="j" transform="translate(63.13 49.6)"><tspan x="0" y="0">TNNT2</tspan></text><text class="j" transform="translate(53.81 44.86)"><tspan x="0" y="0">TNNI3</tspan></text><text class="j" transform="translate(62.37 39.17)"><tspan x="0" y="0">TNNC1</tspan></text><text class="j" transform="translate(53.86 34.77)"><tspan x="0" y="0">MYH7</tspan></text><text class="j" transform="translate(59.14 29.47)"><tspan x="0" y="0">JPH2</tspan></text><text class="j" transform="translate(56.88 22.77)"><tspan x="0" y="0">ACTC1</tspan></text><text class="j" transform="translate(52.19 111.9)"><tspan x="0" y="0">TMEM43</tspan></text><text class="j" transform="translate(34.99 60)"><tspan x="0" y="0">PLN</tspan></text><text class="j" transform="translate(48.4 118.96)"><tspan x="0" y="0">PKP2</tspan></text><text class="j" transform="translate(36.17 123.84)"><tspan x="0" y="0">JU</tspan><tspan class="n" x="4.17" y="0">P</tspan></text><text class="j" transform="translate(43.69 67.46)"><tspan x="0" y="0">DS</tspan><tspan class="c" x="4.74" y="0">P</tspan></text><text class="j" transform="translate(21.09 118.96)"><tspan x="0" y="0">DSG2</tspan></text><text class="j" transform="translate(12.12 111.96)"><tspan x="0" y="0">DSC2</tspan></text><text class="j" transform="translate(26.13 67.46)"><tspan x="0" y="0">DES</tspan></text><text class="h" transform="translate(73.42 37.71)"><tspan x="0" y="0">M</tspan></text><text class="h" transform="translate(70.58 27.91)"><tspan x="0" y="0">M</tspan></text><text class="k" transform="translate(67.9 53.13)"><tspan x="0" y="0">M</tspan></text><text class="k" transform="translate(63.79 43.05)"><tspan x="0" y="0">M</tspan></text><text class="k" transform="translate(67.67 27.91)"><tspan x="0" y="0">M</tspan></text><text class="k" transform="translate(67.97 21.24)"><tspan x="0" y="0">M</tspan></text><text class="k" transform="translate(119.25 22.97)"><tspan x="0" y="0">M</tspan></text><text class="k" transform="translate(13.85 53.36)"><tspan x="0" y="0">M</tspan></text><text class="k" transform="translate(12.65 30.14)"><tspan x="0" y="0">M</tspan></text><text class="k" transform="translate(28.74 7.73)"><tspan x="0" y="0">M</tspan></text><text class="k" transform="translate(50.8 65.71)"><tspan x="0" y="0">S</tspan></text><text class="g" transform="translate(41.55 58.03)"><tspan x="0" y="0">M</tspan></text><text class="g" transform="translate(33.23 65.71)"><tspan x="0" y="0">M</tspan></text><text class="j" transform="translate(5.63 50.14)"><tspan x="0" y="0">TTN</tspan></text></svg>